#N canvas 540 50 636 669 12;
#X obj 168 343 visca;
#X obj 212 291 bng 15 250 50 0 empty empty empty 17 7 0 10 -262144
-1 -1;
#X msg 200 266 info;
#X floatatom 168 368 5 0 0 0 - - -;
#X floatatom 274 524 5 0 0 0 - - -;
#X msg 280 597 addone \$1;
#X floatatom 280 574 5 0 0 0 - - -;
#X text 370 545 <-- passes float;
#X text 358 596 <-- adds one to float;
#X text 238 264 <-- get object info;
#X msg 191 241 devices;
#X obj 454 336 comport;
#X msg 463 257 devices;
#X obj 454 362 print;
#X obj 500 361 print;
#X msg 454 233 ports;
#X msg 274 547 passfloat \$1;
#X msg 473 280 print;
#X msg 478 303 devicename;
#X msg 30 519 testsymbol;
#X msg 40 565 testsymbol test test;
#X msg 36 541 testsymbol test;
#X msg 44 589 testsymbol test test test;
#X obj 30 621 s \$0-visca;
#X obj 211 316 r \$0-visca;
#X msg 178 213 close;
#X msg 168 188 open /dev/cu.usbserial-FTGBV1NE;
#X obj 252 628 s \$0-visca;
#X msg 252 499 open /dev/cu.usbserial-FTGBV1NE \, pan;
#X msg 144 136 send set_pantilt_left 30;
#X msg 156 161 send set_pantilt_left;
#X connect 0 0 3 0;
#X connect 1 0 0 0;
#X connect 2 0 0 0;
#X connect 4 0 16 0;
#X connect 5 0 27 0;
#X connect 6 0 5 0;
#X connect 10 0 0 0;
#X connect 11 0 13 0;
#X connect 11 1 14 0;
#X connect 12 0 11 0;
#X connect 15 0 11 0;
#X connect 16 0 27 0;
#X connect 17 0 11 0;
#X connect 18 0 11 0;
#X connect 19 0 23 0;
#X connect 20 0 23 0;
#X connect 21 0 23 0;
#X connect 22 0 23 0;
#X connect 24 0 0 0;
#X connect 25 0 0 0;
#X connect 26 0 0 0;
#X connect 28 0 27 0;
#X connect 29 0 0 0;
#X connect 30 0 0 0;
