#N canvas 272 23 941 877 12;
#X msg 163 350 devices;
#X obj 134 723 print;
#X obj 228 718 print;
#X msg 159 324 close;
#X msg 152 301 open 1;
#X msg 173 402 info;
#X obj 326 537 print bytes;
#X msg 175 431 help;
#X msg 180 463 dtr 1;
#X msg 180 489 rts 1;
#X msg 187 516 verbose 1;
#X msg 197 544 rtscts 1;
#X msg 203 572 xonxoff 1;
#X msg 342 591 print hello_world;
#X obj 319 733 s \$0-comctl;
#X obj 201 620 r \$0-comctl;
#X obj 319 510 moocow/any2bytes 128 -1;
#X obj 134 693 comport 1 9600;
#X msg 351 641 print 0x81 0x01 0x04 0x3F 0x02 0x01 0xFF;
#X msg 332 9 0x88 \, 0x30 \, 0x01 \, 0xFF;
#X msg 349 616 print 88 30 1 FF;
#X msg 345 37 0x88 \, 0x01 \, 0x00 \, 0x01 \, 0xFF;
#X msg 333 568 print "0x81 0x01 0x04 0x38 0x02 0xFF";
#X text 483 9 <-- byte address_command;
#X text 531 38 <--byte if_clear;
#X msg 358 65 0x81 \, 0x01 \, 0x04 \, 0x07 \, 0x25 \, 0xFF;
#X msg 368 92 0x81 \, 0x01 \, 0x04 \, 0x07 \, 0x35 \, 0xFF;
#X text 617 65 <-- zoom in (0x2x where x is speed);
#X text 623 93 <-- zoom out (0x3x where x is speed);
#X msg 127 225 baud 9600 \, bits 8 \, stopbit 1 \, parity 0 \, xonxoff
1 \, rtscts 1 \, open 1, f 19;
#X msg 384 126 0x00;
#X text 429 126 <-- Return the Current Power status;
#X connect 0 0 17 0;
#X connect 3 0 17 0;
#X connect 4 0 17 0;
#X connect 5 0 17 0;
#X connect 7 0 17 0;
#X connect 8 0 17 0;
#X connect 9 0 17 0;
#X connect 10 0 17 0;
#X connect 11 0 17 0;
#X connect 12 0 17 0;
#X connect 13 0 14 0;
#X connect 15 0 17 0;
#X connect 16 0 6 0;
#X connect 16 0 14 0;
#X connect 17 0 1 0;
#X connect 17 1 2 0;
#X connect 18 0 14 0;
#X connect 19 0 16 0;
#X connect 20 0 14 0;
#X connect 21 0 16 0;
#X connect 22 0 14 0;
#X connect 25 0 16 0;
#X connect 26 0 16 0;
#X connect 29 0 17 0;
#X connect 30 0 16 0;
